<svg width="29" height="26" viewBox="0 0 29 26" fill="none" xmlns="http://www.w3.org/2000/svg">
<rect width="29" height="26" fill="#E5E5E5"/>
<rect x="-1174" y="-12" width="1222" height="862" fill="#36393F"/>
<path d="M23.7125 25.06H0.0289307C2.42345 19.6283 6.85417 15.9597 11.8707 15.9597C16.8873 15.9597 21.318 19.6283 23.7125 25.06Z" fill="#DCDDDE"/>
<path d="M11.8707 15.152C14.9585 15.152 17.4617 12.6489 17.4617 9.56104C17.4617 6.47321 14.9585 3.97003 11.8707 3.97003C8.78284 3.97003 6.27966 6.47321 6.27966 9.56104C6.27966 12.6489 8.78284 15.152 11.8707 15.152Z" fill="#DCDDDE"/>
<path d="M24.6738 0H22.7513V8.6908H24.6738V0Z" fill="#DCDDDE"/>
<path d="M28.0579 5.30663V3.38419L19.3671 3.38419V5.30663H28.0579Z" fill="#DCDDDE"/>
</svg>
