<svg width="30" height="22" viewBox="0 0 30 22" fill="none" xmlns="http://www.w3.org/2000/svg">
<path d="M23.8397 21.2347H0C2.41031 15.7615 6.87023 12.0744 11.9198 12.0744C16.9695 12.0744 21.4294 15.7615 23.8397 21.2347Z" fill="#72767D"/>
<path d="M11.9199 11.2557C15.028 11.2557 17.5477 8.73605 17.5477 5.62786C17.5477 2.51968 15.028 0 11.9199 0C8.81167 0 6.29199 2.51968 6.29199 5.62786C6.29199 8.73605 8.81167 11.2557 11.9199 11.2557Z" fill="#72767D"/>
<path d="M30 21.2347H26.0267L25.6717 20.4275C24.4782 17.6094 22.6246 15.1195 20.2672 13.1679C24.4179 13.5515 27.9962 16.6889 30 21.2347Z" fill="#72767D"/>
<path d="M24.4237 7.40265C24.4237 8.72025 23.9022 9.9843 22.9732 10.9187C22.0442 11.853 20.7832 12.3817 19.4656 12.3893H19.2023C18.5425 11.9506 17.8474 11.5676 17.124 11.2443C17.8992 10.5322 18.5179 9.66676 18.9407 8.70283C19.3635 7.73891 19.5813 6.6976 19.5801 5.64502C19.584 4.54552 19.3455 3.45868 18.8817 2.46181C19.0717 2.43907 19.2628 2.4276 19.4542 2.42746C20.7718 2.43199 22.034 2.9578 22.9651 3.89001C23.8963 4.82223 24.4206 6.08507 24.4237 7.40265Z" fill="#72767D"/>
</svg>
